Visit http://team-cc.com/For More Exclusive Releases

[code]General
Complete name                    : C:UsersNaniDocumentsiWisoft Free Video ConverterUu Kodathara Ulikki Padathara -  Team-CC.Com ExclusiveUu Kodathara Ulikki Padathara -  Team-CC.Com Exclusive.avi
Format                           : AVI
Format/Info                      : Audio Video Interleave
Format profile                   : OpenDML
File size                        : 1.07 GiB
Duration                         : 2h 13mn
Overall bit rate                 : 1 145 Kbps
Writing application              : Lavf52.31.0

Video
ID                               : 0
Format                           : MPEG-4 Visual
Format profile                   : Simple@L3
Format settings, BVOP            : No
Format settings, QPel            : No
Format settings, GMC             : No warppoints
Format settings, Matrix          : Default (H.263)
Codec ID                         : XVID
Codec ID/Hint                    : XviD
Duration                         : 2h 13mn
Bit rate                         : 84.8 Kbps
Width                            : 608 pixels
Height                           : 272 pixels
Display aspect ratio             : 2.25:1
Frame rate                       : 29.970 fps
Color space                      : YUV
Chroma subsampling               : 4:2:0
Bit depth                        : 8 bits
Scan type                        : Progressive
Compression mode                 : Lossy
Bits/(Pixel*Frame)               : 0.017
Stream size                      : 80.8 MiB (7%)
Writing library                  : XviD 1.2.1 (UTC 2008-12-04)

Audio
ID                               : 1
Format                           : MPEG Audio
Format version                   : Version 1
Format profile                   : Layer 3
Mode                             : Joint stereo
Mode extension                   : MS Stereo
Codec ID                         : 55
Codec ID/Hint                    : MP3
Duration                         : 2h 13mn
Bit rate mode                    : Constant
Bit rate                         : 128 Kbps
Channel(s)                       : 2 channels
Sampling rate                    : 44.1 KHz
Compression mode                 : Lossy
Stream size                      : 6.20 MiB (1%)
Alignment                        : Aligned on interleaves
Interleave, duration             : 44 ms (1.31 video frame)
[/code]

Visit http://team-cc.com/For More Exclusive Releases
 
http://i.imgur.com/krKBT.png 
http://i.imgur.com/tlsRo.png 
http://i.imgur.com/Up9ft.png 
http://i.imgur.com/wv5N8.png 
http://i.imgur.com/hgdrU.png 
http://i.imgur.com/BmN0I.png

Visit http://team-cc.com/For More Exclusive Releases